<svg xmlns="http://www.w3.org/2000/svg" xmlns:xlink="http://www.w3.org/1999/xlink" id="Layer_1" x="0" y="0" enable-background="new 0 0 1920 700" version="1.1" viewBox="0 0 1920 700" xml:space="preserve"><switch><g><rect width="1920" height="700" x="0" fill="#FFF"/><g><g><path fill="#050028" d="M818.4,417.6l10-1l0.7,20.3c-26.2,3.7-48.6,5.5-67.2,5.5c-24.8,0-42.4-7.2-52.7-21.5 c-10.3-14.4-15.5-36.7-15.5-67.1c0-60.4,24-90.7,72.1-90.7c23.2,0,40.6,6.5,52.1,19.5c11.5,13,17.2,33.4,17.2,61.2l-1.4,19.7 H719.8c0,19.1,3.4,33.2,10.3,42.4c6.9,9.2,18.9,13.8,36,13.8C783.3,419.7,800.7,419,818.4,417.6z M809.1,342.8 c0-21.1-3.4-36.1-10.2-44.8c-6.8-8.7-17.8-13.1-33.1-13.1c-15.3,0-26.8,4.6-34.5,13.8c-7.7,9.2-11.7,23.9-11.9,44.1H809.1z"/><path fill="#050028" d="M929.4,286.2c-25.1,0-37.6,8.7-37.6,26.2c0,8,2.9,13.7,8.6,17.1c5.7,3.3,18.8,6.8,39.3,10.3 c20.5,3.6,34.9,8.6,43.4,15c8.5,6.4,12.8,18.5,12.8,36.2c0,17.7-5.7,30.7-17.1,39c-11.4,8.3-28,12.4-49.8,12.4 c-14.3,0-31-1.6-50.3-4.8l-10.3-1.7l1.4-22.4c26.2,3.9,46,5.9,59.3,5.9c13.3,0,23.5-2.1,30.5-6.4c7-4.3,10.5-11.4,10.5-21.4 c0-10-3-16.8-9-20.3c-6-3.6-19.1-6.9-39.3-10.2c-20.2-3.2-34.6-7.9-43.1-14.1c-8.5-6.2-12.8-17.7-12.8-34.5 c0-16.8,5.9-29.2,17.8-37.2c11.8-8,26.6-12.1,44.3-12.1c14,0,31.6,1.6,52.7,4.8l9.7,1.7l-0.7,22.1 C964.2,288.1,944.1,286.2,929.4,286.2z"/><path fill="#050028" d="M1100.1,263.1c7.6,0,20.5,1.4,38.6,4.1l8.3,1l-1,21c-18.4-2.1-31.9-3.1-40.7-3.1 c-19.5,0-32.8,4.7-39.8,14c-7,9.3-10.5,26.5-10.5,51.7c0,25.2,3.3,42.7,9.8,52.6c6.6,9.9,20.2,14.8,40.9,14.8l40.7-3.1l1,21.4 c-21.4,3.2-37.4,4.8-47.9,4.8c-26.9,0-45.5-6.9-55.7-20.7c-10.2-13.8-15.3-37.1-15.3-69.8s5.5-55.7,16.5-68.9 C1055.9,269.7,1074.3,263.1,1100.1,263.1z"/><path fill="#050028" d="M1307.6,318.6v88.3c0.7,8.5,7.4,13.6,20,15.2l-1,20.3c-18.2,0-31.8-4.6-41-13.8 c-20.7,9.2-41.4,13.8-62.1,13.8c-15.9,0-27.9-4.5-36.2-13.4c-8.3-9-12.4-21.8-12.4-38.6c0-16.8,4.3-29.1,12.8-37.1 c8.5-7.9,21.8-12.8,40-14.6l54.1-5.2v-14.8c0-11.7-2.5-20.1-7.6-25.2c-5.1-5.1-12-7.6-20.7-7.6c-18.4,0-37.5,1.2-57.2,3.4 l-10.7,1l-1-19.7c25.3-5.1,47.7-7.6,67.2-7.6c19.5,0,33.7,4.5,42.6,13.4C1303.2,285.5,1307.6,299.6,1307.6,318.6z M1201.4,389 c0,21.1,8.7,31.7,26.2,31.7c15.6,0,31-2.6,46.2-7.9l7.9-2.8v-56.9l-51,4.8c-10.3,0.9-17.8,3.9-22.4,9 C1203.7,372,1201.4,379.3,1201.4,389z"/><path fill="#050028" d="M1358.6,515.5V266.6h25.5V279c17.5-10.6,34.7-15.9,51.7-15.9c21.8,0,37.7,7,47.6,20.9 c9.9,13.9,14.8,36.8,14.8,68.8c0,31.9-5.8,54.9-17.4,68.8c-11.6,13.9-30.9,20.9-57.7,20.9c-14,0-26.9-1.3-38.6-3.8v76.9H1358.6z M1432.1,286.2c-6.9,0-14.3,1.2-22.2,3.4c-7.9,2.3-14.2,4.6-18.8,6.9l-6.6,3.4v116.2c16.3,2.5,28.7,3.8,37.2,3.8 c18.6,0,31.7-5.3,39.1-15.9c7.5-10.6,11.2-27.8,11.2-51.7c0-23.9-3.4-40.9-10.2-51C1455.1,291.3,1445.2,286.2,1432.1,286.2z"/><path fill="#050028" d="M1657.5,417.6l10-1l0.7,20.3c-26.2,3.7-48.6,5.5-67.2,5.5c-24.8,0-42.4-7.2-52.7-21.5 c-10.3-14.4-15.5-36.7-15.5-67.1c0-60.4,24-90.7,72.1-90.7c23.2,0,40.6,6.5,52.1,19.5c11.5,13,17.2,33.4,17.2,61.2l-1.4,19.7 h-113.8c0,19.1,3.4,33.2,10.3,42.4c6.9,9.2,18.9,13.8,36,13.8C1622.4,419.7,1639.8,419,1657.5,417.6z M1648.2,342.8 c0-21.1-3.4-36.1-10.2-44.8c-6.8-8.7-17.8-13.1-33.1-13.1c-15.3,0-26.8,4.6-34.5,13.8c-7.7,9.2-11.7,23.9-11.9,44.1H1648.2z"/></g><g><g><path fill="#05E2B7" d="M375,376.9c-44.4,0-80.5-36.1-80.5-80.5c0-36.5,25.5-67.5,65.1-78.9c30.9-8.9,160.8-45.1,166.3-46.7 c1.4-0.4,2.7-0.8,4.1-1.2c0.1,0,0.2-0.1,0.3-0.1c6.3-1.6,12.8-2.4,19.4-2.4c44.4,0,80.5,36.1,80.5,80.5 c0,37-25.2,66.6-67.4,79.3l-162.6,45.9c-2.3,0.8-4.6,1.4-7,2c-0.1,0-0.1,0-0.2,0.1C387.2,376.2,381.1,376.9,375,376.9z M549.8,190.9c-4.6,0-9.2,0.6-13.7,1.7c-1.2,0.3-2.2,0.6-3.3,0.9c-0.1,0-0.2,0.1-0.4,0.1c-1.3,0.4-134.9,37.6-166.3,46.6 c-23.2,6.7-48,25-48,56.2c0,31.3,25.5,56.8,56.8,56.8c4.3,0,8.6-0.5,12.8-1.4c1.8-0.4,3.5-0.9,5.3-1.5c0.2-0.1,0.4-0.1,0.5-0.2 l162.7-45.9c15-4.5,50.3-19.1,50.3-56.6C606.6,216.4,581.1,190.9,549.8,190.9z"/></g><g opacity=".7"><path fill="#05E2B7" d="M350.7,453.8c-44.4,0-80.5-36.1-80.5-80.5c0-36.5,25.5-67.5,65.1-78.9c30.9-8.9,160.8-45.1,166.3-46.7 c1.4-0.4,2.7-0.8,4.1-1.2c0.1,0,0.2-0.1,0.3-0.1c6.3-1.6,12.8-2.4,19.4-2.4c44.4,0,80.5,36.1,80.5,80.5 c0,37-25.2,66.6-67.4,79.3l-162.6,45.8c-2.3,0.8-4.6,1.4-7,2c-0.1,0-0.1,0-0.2,0.1C362.9,453.1,356.8,453.8,350.7,453.8z M525.5,267.8c-4.6,0-9.2,0.6-13.7,1.7c-1.2,0.3-2.2,0.6-3.3,0.9c-0.1,0-0.2,0.1-0.4,0.1c-1.3,0.4-134.9,37.6-166.3,46.6 c-23.2,6.7-48,25-48,56.2c0,31.3,25.5,56.8,56.8,56.8c4.3,0,8.6-0.5,12.8-1.4c1.8-0.4,3.5-0.9,5.2-1.5 c0.2-0.1,163.2-46,163.2-46c15-4.5,50.3-19.1,50.3-56.6C582.3,293.3,556.8,267.8,525.5,267.8z"/></g><g opacity=".45"><path fill="#05E2B7" d="M326.4,532.7c-44.4,0-80.5-36.1-80.5-80.5c0-36.5,25.5-67.5,65.1-78.9c30.9-8.9,160.8-45.1,166.3-46.7 c1.4-0.4,2.7-0.8,4.1-1.2c0.1,0,0.2-0.1,0.3-0.1c6.3-1.6,12.8-2.4,19.4-2.4c44.4,0,80.5,36.1,80.5,80.5 c0,37-25.2,66.6-67.4,79.3l-162.6,45.9c-2.4,0.8-4.8,1.5-7.2,2C338.6,532.1,332.5,532.7,326.4,532.7z M501.2,346.8 c-4.6,0-9.2,0.6-13.7,1.7c-1.2,0.3-2.2,0.6-3.3,0.9c-0.1,0-0.2,0.1-0.4,0.1c-1.3,0.4-134.9,37.6-166.3,46.6 c-23.2,6.7-48,25-48,56.2c0,31.3,25.5,56.8,56.8,56.8c4.3,0,8.6-0.5,12.8-1.4c1.8-0.4,3.5-0.9,5.3-1.5c0.2-0.1,0.4-0.1,0.5-0.2 l162.7-45.9c15-4.5,50.3-19.1,50.3-56.6C558,372.2,532.5,346.8,501.2,346.8z"/></g></g></g></g></switch></svg>